<svg width="32" height="32" viewBox="0 0 32 32" fill="none" xmlns="http://www.w3.org/2000/svg">
<rect width="32" height="32" rx="16" fill="#FEE2E2"/>
<path d="M16.342 17.682H14.676L14.326 11.004H16.692L16.342 17.682ZM14.298 20.02C14.298 19.5907 14.4147 19.292 14.648 19.124C14.8813 18.9467 15.166 18.858 15.502 18.858C15.8287 18.858 16.1087 18.9467 16.342 19.124C16.5753 19.292 16.692 19.5907 16.692 20.02C16.692 20.4307 16.5753 20.7293 16.342 20.916C16.1087 21.0933 15.8287 21.182 15.502 21.182C15.166 21.182 14.8813 21.0933 14.648 20.916C14.4147 20.7293 14.298 20.4307 14.298 20.02Z" fill="#DC2626"/>
</svg>
