<svg width="17" height="16" viewBox="0 0 17 16" fill="none" xmlns="http://www.w3.org/2000/svg">
<path d="M7.22998 0H9.72998C10.1362 0 10.48 0.34375 10.48 0.75V6H13.1987C13.7612 6 14.0425 6.6875 13.6362 7.09375L8.88623 11.8438C8.66748 12.0625 8.26123 12.0625 8.04248 11.8438L3.29248 7.09375C2.88623 6.6875 3.16748 6 3.72998 6H6.47998V0.75C6.47998 0.34375 6.79248 0 7.22998 0ZM16.48 11.75V15.25C16.48 15.6875 16.1362 16 15.73 16H1.22998C0.79248 16 0.47998 15.6875 0.47998 15.25V11.75C0.47998 11.3438 0.79248 11 1.22998 11H5.79248L7.32373 12.5312C7.94873 13.1875 8.97998 13.1875 9.60498 12.5312L11.1362 11H15.73C16.1362 11 16.48 11.3438 16.48 11.75ZM12.605 14.5C12.605 14.1562 12.3237 13.875 11.98 13.875C11.6362 13.875 11.355 14.1562 11.355 14.5C11.355 14.8438 11.6362 15.125 11.98 15.125C12.3237 15.125 12.605 14.8438 12.605 14.5ZM14.605 14.5C14.605 14.1562 14.3237 13.875 13.98 13.875C13.6362 13.875 13.355 14.1562 13.355 14.5C13.355 14.8438 13.6362 15.125 13.98 15.125C14.3237 15.125 14.605 14.8438 14.605 14.5Z" fill="white"/>
</svg>
