<svg width="17" height="16" viewBox="0 0 17 16" fill="none" xmlns="http://www.w3.org/2000/svg">
<path d="M16.5376 5.96875C16.6626 5.875 16.8501 5.96875 16.8501 6.125V12.5C16.8501 13.3438 16.1626 14 15.3501 14H2.3501C1.50635 14 0.850098 13.3438 0.850098 12.5V6.125C0.850098 5.96875 1.00635 5.875 1.13135 5.96875C1.8501 6.53125 2.75635 7.21875 5.94385 9.53125C6.6001 10 7.7251 11.0312 8.8501 11.0312C9.94385 11.0312 11.1001 10 11.7251 9.53125C14.9126 7.21875 15.8188 6.53125 16.5376 5.96875ZM8.8501 10C8.1001 10.0312 7.06885 9.09375 6.5376 8.71875C2.38135 5.71875 2.06885 5.4375 1.13135 4.6875C0.943848 4.5625 0.850098 4.34375 0.850098 4.09375V3.5C0.850098 2.6875 1.50635 2 2.3501 2H15.3501C16.1626 2 16.8501 2.6875 16.8501 3.5V4.09375C16.8501 4.34375 16.7251 4.5625 16.5376 4.6875C15.6001 5.4375 15.2876 5.71875 11.1313 8.71875C10.6001 9.09375 9.56885 10.0312 8.8501 10Z" fill="#374151"/>
</svg>
