<svg width="20" height="20" viewBox="0 0 20 20" fill="none" xmlns="http://www.w3.org/2000/svg">
<path d="M3.33331 4.99998C3.33331 4.55795 3.50891 4.13403 3.82147 3.82147C4.13403 3.50891 4.55795 3.33331 4.99998 3.33331H6.66665C7.10867 3.33331 7.5326 3.50891 7.84516 3.82147C8.15772 4.13403 8.33331 4.55795 8.33331 4.99998V6.66665C8.33331 7.10867 8.15772 7.5326 7.84516 7.84516C7.5326 8.15772 7.10867 8.33331 6.66665 8.33331H4.99998C4.55795 8.33331 4.13403 8.15772 3.82147 7.84516C3.50891 7.5326 3.33331 7.10867 3.33331 6.66665V4.99998ZM11.6666 4.99998C11.6666 4.55795 11.8422 4.13403 12.1548 3.82147C12.4674 3.50891 12.8913 3.33331 13.3333 3.33331H15C15.442 3.33331 15.8659 3.50891 16.1785 3.82147C16.4911 4.13403 16.6666 4.55795 16.6666 4.99998V6.66665C16.6666 7.10867 16.4911 7.5326 16.1785 7.84516C15.8659 8.15772 15.442 8.33331 15 8.33331H13.3333C12.8913 8.33331 12.4674 8.15772 12.1548 7.84516C11.8422 7.5326 11.6666 7.10867 11.6666 6.66665V4.99998ZM3.33331 13.3333C3.33331 12.8913 3.50891 12.4674 3.82147 12.1548C4.13403 11.8422 4.55795 11.6666 4.99998 11.6666H6.66665C7.10867 11.6666 7.5326 11.8422 7.84516 12.1548C8.15772 12.4674 8.33331 12.8913 8.33331 13.3333V15C8.33331 15.442 8.15772 15.8659 7.84516 16.1785C7.5326 16.4911 7.10867 16.6666 6.66665 16.6666H4.99998C4.55795 16.6666 4.13403 16.4911 3.82147 16.1785C3.50891 15.8659 3.33331 15.442 3.33331 15V13.3333ZM11.6666 13.3333C11.6666 12.8913 11.8422 12.4674 12.1548 12.1548C12.4674 11.8422 12.8913 11.6666 13.3333 11.6666H15C15.442 11.6666 15.8659 11.8422 16.1785 12.1548C16.4911 12.4674 16.6666 12.8913 16.6666 13.3333V15C16.6666 15.442 16.4911 15.8659 16.1785 16.1785C15.8659 16.4911 15.442 16.6666 15 16.6666H13.3333C12.8913 16.6666 12.4674 16.4911 12.1548 16.1785C11.8422 15.8659 11.6666 15.442 11.6666 15V13.3333Z" stroke="#2563EB" stroke-width="1.66667" stroke-linecap="round" stroke-linejoin="round"/>
</svg>
