<svg width="32" height="32" viewBox="0 0 32 32" fill="none" xmlns="http://www.w3.org/2000/svg">
<rect width="32" height="32" rx="16" fill="#FEF9C3"/>
<path d="M16 8.96875C19.7461 8.96875 22.7812 12.0039 22.7812 15.75C22.7812 19.4961 19.7461 22.5312 16 22.5312C12.2539 22.5312 9.21875 19.4961 9.21875 15.75C9.21875 12.0039 12.2539 8.96875 16 8.96875ZM18.5156 17.5273C18.5703 17.4727 18.625 17.3633 18.625 17.2539C18.625 17.1172 18.543 17.0078 18.4609 16.9258L16.875 15.75V11.8125C16.875 11.5938 16.6562 11.375 16.4375 11.375H15.5625C15.3164 11.375 15.125 11.5938 15.125 11.8125V16.0781C15.125 16.4336 15.2617 16.7344 15.5352 16.9258L17.3672 18.293C17.4219 18.3477 17.5312 18.4023 17.6133 18.4023C17.7773 18.4023 17.8867 18.3203 17.9688 18.2109L18.5156 17.5273Z" fill="#CA8A04"/>
</svg>
