<svg width="32" height="32" viewBox="0 0 32 32" fill="none" xmlns="http://www.w3.org/2000/svg">
<rect width="32" height="32" rx="16" fill="#F3F4F6"/>
<path d="M10.4297 16.6797L9.82812 16.0781C9.58203 15.8047 9.58203 15.3945 9.82812 15.1484L15.1602 9.81641C15.4062 9.57031 15.8164 9.57031 16.0625 9.81641L21.3945 15.1484C21.6406 15.3945 21.6406 15.8047 21.3945 16.0781L20.793 16.6797C20.5195 16.9258 20.1094 16.9258 19.8359 16.6523L16.7188 13.3711V21.2188C16.7188 21.6016 16.418 21.875 16.0625 21.875H15.1875C14.8047 21.875 14.5312 21.6016 14.5312 21.2188V13.3711L11.3867 16.6797C11.1133 16.9258 10.7031 16.9531 10.4297 16.6797Z" fill="#4B5563"/>
</svg>
