<svg width="32" height="20" viewBox="0 0 32 20" fill="none" xmlns="http://www.w3.org/2000/svg">
<path d="M13.5469 14.3711H14.0938V10.4062H13.5469C13.2188 10.4062 13 10.1602 13 9.85938V8.54688C13 8.24609 13.2188 8 13.5469 8H16.6094C16.9102 8 17.1562 8.24609 17.1562 8.54688V14.3711H17.7031C18.0039 14.3711 18.25 14.6172 18.25 14.918V16.2031C18.25 16.5312 18.0039 16.75 17.7031 16.75H13.5469C13.2188 16.75 13 16.5312 13 16.2031V14.918C13 14.6172 13.2188 14.3711 13.5469 14.3711ZM15.625 2.75C16.6914 2.75 17.5938 3.65234 17.5938 4.71875C17.5938 5.8125 16.6914 6.6875 15.625 6.6875C14.5312 6.6875 13.6562 5.8125 13.6562 4.71875C13.6562 3.65234 14.5312 2.75 15.625 2.75Z" fill="#2563EB"/>
</svg>
