<svg width="16" height="16" viewBox="0 0 16 16" fill="none" xmlns="http://www.w3.org/2000/svg">
<path d="M1.33325 1.33335V5.50002H1.81825M1.81825 5.50002C2.37146 4.13179 3.36299 2.98578 4.63744 2.24157C5.9119 1.49737 7.39725 1.19703 8.86073 1.38764C10.3242 1.57824 11.6831 2.24902 12.7244 3.29483C13.7657 4.34065 14.4306 5.70241 14.6149 7.16669M1.81825 5.50002H5.49992M14.6666 14.6667V10.5H14.1824M14.1824 10.5C13.6284 11.8674 12.6366 13.0126 11.3623 13.7561C10.0879 14.4996 8.60303 14.7996 7.14 14.6091C5.67697 14.4185 4.31842 13.7482 3.27703 12.7031C2.23564 11.658 1.57021 10.2971 1.38492 8.83335M14.1824 10.5H10.4999" stroke="#718096" stroke-width="1.66667" stroke-linecap="round" stroke-linejoin="round"/>
</svg>
