<svg width="20" height="20" viewBox="0 0 20 20" fill="none" xmlns="http://www.w3.org/2000/svg">
<path d="M4.10829 4.10817L7.64163 7.6415M12.3583 12.3582L15.8916 15.8915M15.8916 4.10817L12.3583 7.6415L15.3 4.69984M4.10829 15.8915L7.64163 12.3582M18.3333 9.99984C18.3333 14.6022 14.6023 18.3332 9.99996 18.3332C5.39759 18.3332 1.66663 14.6022 1.66663 9.99984C1.66663 5.39746 5.39759 1.6665 9.99996 1.6665C14.6023 1.6665 18.3333 5.39746 18.3333 9.99984ZM13.3333 9.99984C13.3333 11.8408 11.8409 13.3332 9.99996 13.3332C8.15901 13.3332 6.66663 11.8408 6.66663 9.99984C6.66663 8.15889 8.15901 6.6665 9.99996 6.6665C11.8409 6.6665 13.3333 8.15889 13.3333 9.99984Z" stroke="#718096" stroke-width="2" stroke-linecap="round" stroke-linejoin="round"/>
</svg>
