<svg width="17" height="16" viewBox="0 0 17 16" fill="none" xmlns="http://www.w3.org/2000/svg">
<path d="M4.95361 1.125L5.48486 1.625C5.54736 1.71875 5.60986 1.8125 5.60986 1.90625C5.60986 2 5.54736 2.09375 5.48486 2.15625L3.23486 4.4375L2.73486 4.90625C2.67236 4.96875 2.57861 5.03125 2.45361 5.03125C2.35986 5.03125 2.26611 4.96875 2.20361 4.90625L0.703613 3.4375C0.641113 3.375 0.578613 3.28125 0.578613 3.15625C0.578613 3.0625 0.641113 2.96875 0.703613 2.90625L1.20361 2.40625C1.26611 2.34375 1.35986 2.3125 1.45361 2.3125C1.57861 2.3125 1.67236 2.34375 1.73486 2.40625L2.42236 3.09375L4.42236 1.125C4.48486 1.0625 4.57861 1 4.70361 1C4.79736 1 4.89111 1.0625 4.95361 1.125ZM4.95361 6.09375L5.48486 6.625C5.54736 6.6875 5.60986 6.78125 5.60986 6.90625C5.60986 7 5.54736 7.09375 5.48486 7.15625L3.23486 9.40625L2.73486 9.90625C2.67236 9.96875 2.57861 10.0312 2.45361 10.0312C2.35986 10.0312 2.26611 9.96875 2.20361 9.90625L0.703613 8.40625C0.641113 8.34375 0.578613 8.25 0.578613 8.15625C0.578613 8.0625 0.641113 7.96875 0.703613 7.875L1.20361 7.40625C1.26611 7.34375 1.35986 7.28125 1.45361 7.28125C1.57861 7.28125 1.67236 7.34375 1.73486 7.40625L2.42236 8.09375L4.42236 6.09375C4.48486 6.03125 4.57861 6 4.70361 6C4.79736 6 4.89111 6.03125 4.95361 6.09375ZM2.60986 11.5C3.42236 11.5 4.10986 12.1875 4.10986 13C4.10986 13.8438 3.42236 14.5 2.60986 14.5C1.76611 14.5 1.07861 13.8438 1.07861 13C1.07861 12.1875 1.76611 11.5 2.60986 11.5ZM16.1099 12C16.3599 12 16.6099 12.25 16.6099 12.5V13.5C16.6099 13.7812 16.3599 14 16.1099 14H7.10986C6.82861 14 6.60986 13.7812 6.60986 13.5V12.5C6.60986 12.25 6.82861 12 7.10986 12H16.1099ZM16.1099 2C16.3599 2 16.6099 2.25 16.6099 2.5V3.5C16.6099 3.78125 16.3599 4 16.1099 4H7.10986C6.82861 4 6.60986 3.78125 6.60986 3.5V2.5C6.60986 2.25 6.82861 2 7.10986 2H16.1099ZM16.1099 7C16.3599 7 16.6099 7.25 16.6099 7.5V8.5C16.6099 8.78125 16.3599 9 16.1099 9H7.10986C6.82861 9 6.60986 8.78125 6.60986 8.5V7.5C6.60986 7.25 6.82861 7 7.10986 7H16.1099Z" fill="#374151"/>
</svg>
